<?xml version="1.0" encoding="UTF-8"?><svg id="Layer_1" xmlns="http://www.w3.org/2000/svg" viewBox="0 0 4097 4097"><defs><style>.cls-1{fill:#6abf63;}.cls-1,.cls-2,.cls-3,.cls-4,.cls-5{stroke:#0f1011;stroke-linecap:round;stroke-linejoin:round;stroke-width:192px;}.cls-6{fill:#231f20;stroke:#231f20;stroke-miterlimit:10;}.cls-2{fill:#f76e6e;}.cls-7,.cls-5{fill:none;}.cls-3{fill:#fff;}.cls-4{fill:#6e6ef7;}</style></defs><rect class="cls-6" x=".5" y=".5" width="4096" height="4096"/><rect class="cls-7" x=".5" y=".5" width="4096" height="4096"/><polyline class="cls-4" points="2713.49 896.71 2048.5 1286.48 1383.51 1664.57 718.52 1280.64 2048.5 512.78 3378.47 1280.64 2713.49 1664.57 2048.5 1286.48 1373.32 902.59"/><polygon class="cls-3" points="1383.51 1664.57 2048.5 1286.48 2043.4 2048.5 1383.51 2432.38 1383.51 1664.57"/><polygon class="cls-3" points="2048.5 2816.27 1383.51 2432.38 2043.4 2048.5 2713.41 2432.43 2048.5 2816.27"/><polygon class="cls-3" points="2048.5 1286.48 2043.4 2048.5 2713.41 2432.43 2713.49 1664.57 2048.5 1286.48"/><polygon class="cls-1" points="1383.51 1664.57 1383.51 2432.43 2048.5 2805.77 2048.5 3584.22 718.53 2816.36 718.52 1280.64 1383.51 1664.57"/><polygon class="cls-5" points="1383.51 2432.43 718.52 2048.41 718.53 2816.36 1383.51 3200.29 1383.51 2432.43"/><polygon class="cls-2" points="2713.49 1664.57 2713.49 2432.38 2048.5 2795.47 2048.5 3584.22 3378.48 2816.36 3378.47 1280.64 2713.49 1664.57"/><polygon class="cls-5" points="2713.49 2432.38 2713.49 3200.29 3378.48 2816.36 3378.48 2048.5 2713.49 2432.38"/></svg>